<svg width="500" height="500" viewBox="0 0 500 500" fill="none" xmlns="http://www.w3.org/2000/svg">
<g style="mix-blend-mode:luminosity">
<path d="M82.1 384.8V159.5H186.5L210.1 180.6H365.4V384.8H82.1Z" fill="#68E1FD"/>
<path d="M365.4 386.6H82.1C81.1 386.6 80.3 385.8 80.3 384.8V159.5C80.3 158.5 81.1 157.7 82.1 157.7H186.5C186.9 157.7 187.4 157.9 187.7 158.2L210.8 178.8H365.4C366.4 178.8 367.2 179.6 367.2 180.6V384.8C367.3 385.8 366.4 386.6 365.4 386.6ZM83.9 382.9H363.6V182.4H210.1C209.7 182.4 209.2 182.2 208.9 181.9L185.8 161.3H83.9V382.9Z" fill="#093F68"/>
<path d="M333.527 116.049L94.1844 138.631L116.879 379.168L356.221 356.586L333.527 116.049Z" fill="#FFBC0E"/>
<path d="M116.9 381C116 381 115.2 380.3 115.1 379.3L92.4 138.8C92.4 138.3 92.5 137.8 92.8 137.5C93.1 137.1 93.6 136.9 94 136.9L333.3 114.3C334.3 114.2 335.2 114.9 335.3 115.9L358 356.5C358.1 357.5 357.4 358.4 356.4 358.5L117.1 381H116.9ZM96.2 140.3L118.5 377.2L354.3 355L331.9 118.1L96.2 140.3Z" fill="#093F68"/>
<path d="M358 145.7H117.6V363.1H358V145.7Z" fill="white"/>
<path d="M358 364.9H117.6C116.6 364.9 115.8 364.1 115.8 363.1V145.7C115.8 144.7 116.6 143.9 117.6 143.9H358C359 143.9 359.8 144.7 359.8 145.7V363.1C359.8 364.1 359 364.9 358 364.9ZM119.4 361.3H356.1V147.5H119.4V361.3Z" fill="#093F68"/>
<path d="M328.5 176.7H280.4C279.4 176.8 278.5 176 278.4 175C278.3 174 279.1 173.1 280.1 173C280.2 173 280.3 173 280.4 173H328.5C329.5 172.9 330.4 173.7 330.5 174.7C330.6 175.7 329.8 176.6 328.8 176.7C328.7 176.7 328.6 176.7 328.5 176.7Z" fill="#70CC40"/>
<path d="M328.5 199.7H149.7C148.7 199.6 147.9 198.7 148 197.7C148.1 196.8 148.8 196.1 149.7 196H328.5C329.5 195.9 330.4 196.7 330.5 197.7C330.6 198.7 329.8 199.6 328.8 199.7C328.7 199.7 328.6 199.7 328.5 199.7Z" fill="#70CC40"/>
<path d="M328.5 222.8H149.7C148.7 222.8 147.9 222 147.9 221C147.9 220 148.7 219.2 149.7 219.2H328.5C329.5 219.2 330.3 220 330.3 221C330.3 222 329.5 222.8 328.5 222.8Z" fill="#70CC40"/>
<path d="M328.5 245.8H149.7C148.7 245.7 147.9 244.8 148 243.8C148.1 242.9 148.8 242.2 149.7 242.1H328.5C329.5 242 330.4 242.8 330.5 243.8C330.6 244.8 329.8 245.7 328.8 245.8C328.7 245.8 328.6 245.8 328.5 245.8Z" fill="#70CC40"/>
<path d="M82.1 384.8L125.3 237.7H258L277.5 219.7H417.9L367.5 384.8H82.1Z" fill="#68E1FD"/>
<path d="M367.5 386.6H82.1C81.1 386.6 80.3 385.8 80.3 384.8C80.3 384.6 80.3 384.4 80.4 384.3L123.6 237.2C123.8 236.4 124.5 235.9 125.4 235.9H257.4L276.4 218.4C276.7 218.1 277.2 217.9 277.6 217.9H418C418.6 217.9 419.1 218.2 419.5 218.6C419.8 219.1 420 219.7 419.8 220.2L369.4 385.3C369 386 368.3 386.6 367.5 386.6ZM84.6 382.9H366.2L415.5 221.5H278.2L259.2 239C258.9 239.3 258.4 239.5 258 239.5H126.7L84.6 382.9Z" fill="#093F68"/>
<path d="M355.1 364.3H296.5C295.5 364.2 294.7 363.3 294.8 362.3C294.9 361.4 295.6 360.7 296.5 360.6H355.1C356.1 360.5 357 361.3 357.1 362.3C357.2 363.3 356.4 364.2 355.4 364.3C355.3 364.3 355.2 364.3 355.1 364.3Z" fill="#F56132"/>
<path d="M170.9 176.7H149.7C148.7 176.6 147.9 175.7 148 174.7C148.1 173.8 148.8 173.1 149.7 173H170.9C171.9 172.9 172.8 173.7 172.9 174.7C173 175.7 172.2 176.6 171.2 176.7C171.1 176.7 171 176.7 170.9 176.7Z" fill="#70CC40"/>
</g>
<path d="M139.874 442.545C139.737 441.394 139.184 440.5 138.214 439.864C137.245 439.227 136.055 438.909 134.646 438.909C133.616 438.909 132.714 439.076 131.942 439.409C131.177 439.742 130.578 440.201 130.146 440.784C129.722 441.367 129.51 442.03 129.51 442.773C129.51 443.394 129.658 443.928 129.953 444.375C130.256 444.814 130.643 445.182 131.112 445.477C131.582 445.765 132.074 446.004 132.589 446.193C133.105 446.375 133.578 446.523 134.01 446.636L136.374 447.273C136.98 447.432 137.654 447.652 138.396 447.932C139.146 448.212 139.862 448.595 140.544 449.08C141.233 449.557 141.802 450.17 142.249 450.92C142.696 451.67 142.919 452.591 142.919 453.682C142.919 454.939 142.589 456.076 141.93 457.091C141.279 458.106 140.324 458.913 139.067 459.511C137.817 460.11 136.298 460.409 134.51 460.409C132.843 460.409 131.4 460.14 130.18 459.602C128.968 459.064 128.014 458.314 127.317 457.352C126.627 456.39 126.237 455.273 126.146 454H129.055C129.131 454.879 129.427 455.606 129.942 456.182C130.464 456.75 131.124 457.174 131.919 457.455C132.722 457.727 133.586 457.864 134.51 457.864C135.586 457.864 136.552 457.689 137.408 457.341C138.264 456.985 138.942 456.492 139.442 455.864C139.942 455.227 140.192 454.485 140.192 453.636C140.192 452.864 139.976 452.235 139.544 451.75C139.112 451.265 138.544 450.871 137.839 450.568C137.135 450.265 136.374 450 135.555 449.773L132.692 448.955C130.874 448.432 129.434 447.686 128.374 446.716C127.313 445.746 126.783 444.477 126.783 442.909C126.783 441.606 127.135 440.47 127.839 439.5C128.552 438.523 129.506 437.765 130.703 437.227C131.908 436.682 133.252 436.409 134.737 436.409C136.237 436.409 137.571 436.678 138.737 437.216C139.904 437.746 140.828 438.473 141.51 439.398C142.199 440.322 142.563 441.371 142.601 442.545H139.874ZM154.507 460.364C152.825 460.364 151.375 459.992 150.155 459.25C148.943 458.5 148.007 457.455 147.348 456.114C146.696 454.765 146.371 453.197 146.371 451.409C146.371 449.621 146.696 448.045 147.348 446.682C148.007 445.311 148.924 444.242 150.098 443.477C151.28 442.705 152.659 442.318 154.234 442.318C155.143 442.318 156.041 442.47 156.928 442.773C157.814 443.076 158.621 443.568 159.348 444.25C160.075 444.924 160.655 445.818 161.087 446.932C161.518 448.045 161.734 449.417 161.734 451.045V452.182H148.28V449.864H159.007C159.007 448.879 158.81 448 158.416 447.227C158.03 446.455 157.477 445.845 156.757 445.398C156.045 444.951 155.204 444.727 154.234 444.727C153.166 444.727 152.242 444.992 151.462 445.523C150.689 446.045 150.094 446.727 149.678 447.568C149.261 448.409 149.053 449.311 149.053 450.273V451.818C149.053 453.136 149.28 454.254 149.734 455.17C150.196 456.08 150.837 456.773 151.655 457.25C152.473 457.72 153.424 457.955 154.507 457.955C155.212 457.955 155.848 457.856 156.416 457.659C156.992 457.455 157.488 457.152 157.905 456.75C158.321 456.341 158.643 455.833 158.871 455.227L161.462 455.955C161.189 456.833 160.731 457.606 160.087 458.273C159.443 458.932 158.647 459.447 157.7 459.818C156.753 460.182 155.689 460.364 154.507 460.364ZM168.496 436.727V460H165.814V436.727H168.496ZM180.726 460.364C179.044 460.364 177.593 459.992 176.374 459.25C175.161 458.5 174.226 457.455 173.567 456.114C172.915 454.765 172.589 453.197 172.589 451.409C172.589 449.621 172.915 448.045 173.567 446.682C174.226 445.311 175.143 444.242 176.317 443.477C177.499 442.705 178.877 442.318 180.453 442.318C181.362 442.318 182.26 442.47 183.146 442.773C184.033 443.076 184.839 443.568 185.567 444.25C186.294 444.924 186.874 445.818 187.305 446.932C187.737 448.045 187.953 449.417 187.953 451.045V452.182H174.499V449.864H185.226C185.226 448.879 185.029 448 184.635 447.227C184.249 446.455 183.696 445.845 182.976 445.398C182.264 444.951 181.423 444.727 180.453 444.727C179.385 444.727 178.461 444.992 177.68 445.523C176.908 446.045 176.313 446.727 175.896 447.568C175.48 448.409 175.271 449.311 175.271 450.273V451.818C175.271 453.136 175.499 454.254 175.953 455.17C176.415 456.08 177.055 456.773 177.874 457.25C178.692 457.72 179.643 457.955 180.726 457.955C181.43 457.955 182.067 457.856 182.635 457.659C183.211 457.455 183.707 457.152 184.124 456.75C184.54 456.341 184.862 455.833 185.089 455.227L187.68 455.955C187.408 456.833 186.949 457.606 186.305 458.273C185.661 458.932 184.866 459.447 183.919 459.818C182.972 460.182 181.908 460.364 180.726 460.364ZM199.124 460.364C197.487 460.364 196.078 459.977 194.896 459.205C193.714 458.432 192.805 457.367 192.169 456.011C191.533 454.655 191.214 453.106 191.214 451.364C191.214 449.591 191.54 448.027 192.192 446.67C192.851 445.307 193.768 444.242 194.942 443.477C196.124 442.705 197.502 442.318 199.078 442.318C200.305 442.318 201.411 442.545 202.396 443C203.381 443.455 204.188 444.091 204.817 444.909C205.446 445.727 205.836 446.682 205.987 447.773H203.305C203.101 446.977 202.646 446.273 201.942 445.659C201.245 445.038 200.305 444.727 199.124 444.727C198.078 444.727 197.161 445 196.374 445.545C195.593 446.083 194.983 446.845 194.544 447.83C194.112 448.807 193.896 449.955 193.896 451.273C193.896 452.621 194.108 453.795 194.533 454.795C194.964 455.795 195.571 456.572 196.351 457.125C197.139 457.678 198.063 457.955 199.124 457.955C199.821 457.955 200.453 457.833 201.021 457.591C201.589 457.348 202.071 457 202.464 456.545C202.858 456.091 203.139 455.545 203.305 454.909H205.987C205.836 455.939 205.461 456.867 204.862 457.693C204.271 458.511 203.487 459.163 202.51 459.648C201.54 460.125 200.411 460.364 199.124 460.364ZM217.499 442.545V444.818H208.453V442.545H217.499ZM211.089 438.364H213.771V455C213.771 455.758 213.881 456.326 214.101 456.705C214.328 457.076 214.616 457.326 214.964 457.455C215.321 457.576 215.696 457.636 216.089 457.636C216.385 457.636 216.627 457.621 216.817 457.591C217.006 457.553 217.158 457.523 217.271 457.5L217.817 459.909C217.635 459.977 217.381 460.045 217.055 460.114C216.73 460.189 216.317 460.227 215.817 460.227C215.059 460.227 214.317 460.064 213.589 459.739C212.87 459.413 212.271 458.917 211.794 458.25C211.324 457.583 211.089 456.742 211.089 455.727V438.364ZM230.896 460V436.727H244.851V439.227H233.714V447.091H243.805V449.591H233.714V460H230.896ZM255.124 460.364C253.548 460.364 252.165 459.989 250.976 459.239C249.794 458.489 248.87 457.439 248.203 456.091C247.544 454.742 247.214 453.167 247.214 451.364C247.214 449.545 247.544 447.958 248.203 446.602C248.87 445.246 249.794 444.193 250.976 443.443C252.165 442.693 253.548 442.318 255.124 442.318C256.699 442.318 258.078 442.693 259.26 443.443C260.449 444.193 261.374 445.246 262.033 446.602C262.699 447.958 263.033 449.545 263.033 451.364C263.033 453.167 262.699 454.742 262.033 456.091C261.374 457.439 260.449 458.489 259.26 459.239C258.078 459.989 256.699 460.364 255.124 460.364ZM255.124 457.955C256.321 457.955 257.305 457.648 258.078 457.034C258.851 456.42 259.423 455.614 259.794 454.614C260.165 453.614 260.351 452.53 260.351 451.364C260.351 450.197 260.165 449.11 259.794 448.102C259.423 447.095 258.851 446.28 258.078 445.659C257.305 445.038 256.321 444.727 255.124 444.727C253.927 444.727 252.942 445.038 252.169 445.659C251.396 446.28 250.824 447.095 250.453 448.102C250.082 449.11 249.896 450.197 249.896 451.364C249.896 452.53 250.082 453.614 250.453 454.614C250.824 455.614 251.396 456.42 252.169 457.034C252.942 457.648 253.927 457.955 255.124 457.955ZM269.808 436.727V460H267.126V436.727H269.808ZM281.311 460.364C279.857 460.364 278.572 459.996 277.459 459.261C276.345 458.519 275.474 457.473 274.845 456.125C274.216 454.769 273.902 453.167 273.902 451.318C273.902 449.485 274.216 447.894 274.845 446.545C275.474 445.197 276.349 444.155 277.47 443.42C278.591 442.686 279.887 442.318 281.357 442.318C282.493 442.318 283.391 442.508 284.05 442.886C284.716 443.258 285.224 443.682 285.572 444.159C285.929 444.629 286.205 445.015 286.402 445.318H286.629V436.727H289.311V460H286.72V457.318H286.402C286.205 457.636 285.925 458.038 285.561 458.523C285.197 459 284.679 459.428 284.004 459.807C283.33 460.178 282.432 460.364 281.311 460.364ZM281.675 457.955C282.75 457.955 283.66 457.674 284.402 457.114C285.144 456.545 285.709 455.761 286.095 454.761C286.482 453.754 286.675 452.591 286.675 451.273C286.675 449.97 286.485 448.83 286.107 447.852C285.728 446.867 285.167 446.102 284.425 445.557C283.682 445.004 282.766 444.727 281.675 444.727C280.538 444.727 279.591 445.019 278.834 445.602C278.084 446.178 277.519 446.962 277.141 447.955C276.769 448.939 276.584 450.045 276.584 451.273C276.584 452.515 276.773 453.644 277.152 454.659C277.538 455.667 278.107 456.47 278.857 457.068C279.614 457.659 280.554 457.955 281.675 457.955ZM301.913 460.364C300.232 460.364 298.781 459.992 297.561 459.25C296.349 458.5 295.413 457.455 294.754 456.114C294.103 454.765 293.777 453.197 293.777 451.409C293.777 449.621 294.103 448.045 294.754 446.682C295.413 445.311 296.33 444.242 297.504 443.477C298.686 442.705 300.065 442.318 301.641 442.318C302.55 442.318 303.447 442.47 304.334 442.773C305.22 443.076 306.027 443.568 306.754 444.25C307.482 444.924 308.061 445.818 308.493 446.932C308.925 448.045 309.141 449.417 309.141 451.045V452.182H295.686V449.864H306.413C306.413 448.879 306.216 448 305.822 447.227C305.436 446.455 304.883 445.845 304.163 445.398C303.451 444.951 302.61 444.727 301.641 444.727C300.572 444.727 299.648 444.992 298.868 445.523C298.095 446.045 297.5 446.727 297.084 447.568C296.667 448.409 296.459 449.311 296.459 450.273V451.818C296.459 453.136 296.686 454.254 297.141 455.17C297.603 456.08 298.243 456.773 299.061 457.25C299.879 457.72 300.83 457.955 301.913 457.955C302.618 457.955 303.254 457.856 303.822 457.659C304.398 457.455 304.894 457.152 305.311 456.75C305.728 456.341 306.05 455.833 306.277 455.227L308.868 455.955C308.595 456.833 308.137 457.606 307.493 458.273C306.849 458.932 306.054 459.447 305.107 459.818C304.16 460.182 303.095 460.364 301.913 460.364ZM313.22 460V442.545H315.811V445.182H315.993C316.311 444.318 316.887 443.617 317.72 443.08C318.554 442.542 319.493 442.273 320.538 442.273C320.735 442.273 320.982 442.277 321.277 442.284C321.572 442.292 321.796 442.303 321.947 442.318V445.045C321.857 445.023 321.648 444.989 321.322 444.943C321.004 444.89 320.667 444.864 320.311 444.864C319.463 444.864 318.705 445.042 318.038 445.398C317.379 445.746 316.857 446.231 316.47 446.852C316.091 447.466 315.902 448.167 315.902 448.955V460H313.22Z" fill="black"/>
</svg>
