<svg width="500" height="500" viewBox="0 0 500 500" fill="none" xmlns="http://www.w3.org/2000/svg">
<g style="mix-blend-mode:luminosity">
<path d="M82.1 384.8V159.5H186.5L210.1 180.6H365.4V384.8H82.1Z" fill="#68E1FD"/>
<path d="M365.4 386.6H82.1C81.1 386.6 80.3 385.8 80.3 384.8V159.5C80.3 158.5 81.1 157.7 82.1 157.7H186.5C186.9 157.7 187.4 157.9 187.7 158.2L210.8 178.8H365.4C366.4 178.8 367.2 179.6 367.2 180.6V384.8C367.3 385.8 366.4 386.6 365.4 386.6ZM83.9 382.9H363.6V182.4H210.1C209.7 182.4 209.2 182.2 208.9 181.9L185.8 161.3H83.9V382.9Z" fill="#093F68"/>
<path d="M333.527 116.049L94.1844 138.631L116.879 379.168L356.221 356.586L333.527 116.049Z" fill="#FFBC0E"/>
<path d="M116.9 381C116 381 115.2 380.3 115.1 379.3L92.4 138.8C92.4 138.3 92.5 137.8 92.8 137.5C93.1 137.1 93.6 136.9 94 136.9L333.3 114.3C334.3 114.2 335.2 114.9 335.3 115.9L358 356.5C358.1 357.5 357.4 358.4 356.4 358.5L117.1 381H116.9ZM96.2 140.3L118.5 377.2L354.3 355L331.9 118.1L96.2 140.3Z" fill="#093F68"/>
<path d="M358 145.7H117.6V363.1H358V145.7Z" fill="white"/>
<path d="M358 364.9H117.6C116.6 364.9 115.8 364.1 115.8 363.1V145.7C115.8 144.7 116.6 143.9 117.6 143.9H358C359 143.9 359.8 144.7 359.8 145.7V363.1C359.8 364.1 359 364.9 358 364.9ZM119.4 361.3H356.1V147.5H119.4V361.3Z" fill="#093F68"/>
<path d="M328.5 176.7H280.4C279.4 176.8 278.5 176 278.4 175C278.3 174 279.1 173.1 280.1 173C280.2 173 280.3 173 280.4 173H328.5C329.5 172.9 330.4 173.7 330.5 174.7C330.6 175.7 329.8 176.6 328.8 176.7C328.7 176.7 328.6 176.7 328.5 176.7Z" fill="#70CC40"/>
<path d="M328.5 199.7H149.7C148.7 199.6 147.9 198.7 148 197.7C148.1 196.8 148.8 196.1 149.7 196H328.5C329.5 195.9 330.4 196.7 330.5 197.7C330.6 198.7 329.8 199.6 328.8 199.7C328.7 199.7 328.6 199.7 328.5 199.7Z" fill="#70CC40"/>
<path d="M328.5 222.8H149.7C148.7 222.8 147.9 222 147.9 221C147.9 220 148.7 219.2 149.7 219.2H328.5C329.5 219.2 330.3 220 330.3 221C330.3 222 329.5 222.8 328.5 222.8Z" fill="#70CC40"/>
<path d="M328.5 245.8H149.7C148.7 245.7 147.9 244.8 148 243.8C148.1 242.9 148.8 242.2 149.7 242.1H328.5C329.5 242 330.4 242.8 330.5 243.8C330.6 244.8 329.8 245.7 328.8 245.8C328.7 245.8 328.6 245.8 328.5 245.8Z" fill="#70CC40"/>
<path d="M82.1 384.8L125.3 237.7H258L277.5 219.7H417.9L367.5 384.8H82.1Z" fill="#68E1FD"/>
<path d="M367.5 386.6H82.1C81.1 386.6 80.3 385.8 80.3 384.8C80.3 384.6 80.3 384.4 80.4 384.3L123.6 237.2C123.8 236.4 124.5 235.9 125.4 235.9H257.4L276.4 218.4C276.7 218.1 277.2 217.9 277.6 217.9H418C418.6 217.9 419.1 218.2 419.5 218.6C419.8 219.1 420 219.7 419.8 220.2L369.4 385.3C369 386 368.3 386.6 367.5 386.6ZM84.6 382.9H366.2L415.5 221.5H278.2L259.2 239C258.9 239.3 258.4 239.5 258 239.5H126.7L84.6 382.9Z" fill="#093F68"/>
<path d="M355.1 364.3H296.5C295.5 364.2 294.7 363.3 294.8 362.3C294.9 361.4 295.6 360.7 296.5 360.6H355.1C356.1 360.5 357 361.3 357.1 362.3C357.2 363.3 356.4 364.2 355.4 364.3C355.3 364.3 355.2 364.3 355.1 364.3Z" fill="#F56132"/>
<path d="M170.9 176.7H149.7C148.7 176.6 147.9 175.7 148 174.7C148.1 173.8 148.8 173.1 149.7 173H170.9C171.9 172.9 172.8 173.7 172.9 174.7C173 175.7 172.2 176.6 171.2 176.7C171.1 176.7 171 176.7 170.9 176.7Z" fill="#70CC40"/>
</g>
</svg>
