<svg width="500" height="500" viewBox="0 0 500 500" fill="none" xmlns="http://www.w3.org/2000/svg">
<g style="mix-blend-mode:luminosity">
<path d="M81.8 384.509V159.209H186.2L209.8 180.309H365.1V384.509H81.8Z" fill="#68E1FD"/>
<path d="M365.1 386.309H81.8C80.8 386.309 80 385.509 80 384.509V159.209C80 158.209 80.8 157.409 81.8 157.409H186.2C186.6 157.409 187.1 157.609 187.4 157.909L210.5 178.509H365.1C366.1 178.509 366.9 179.309 366.9 180.309V384.509C367 385.509 366.1 386.309 365.1 386.309ZM83.6 382.609H363.3V182.109H209.8C209.4 182.109 208.9 181.909 208.6 181.609L185.5 161.009H83.6V382.609Z" fill="#093F68"/>
<path d="M333.227 115.759L93.8844 138.341L116.579 378.878L355.921 356.296L333.227 115.759Z" fill="#FFBC0E"/>
<path d="M116.6 380.71C115.7 380.71 114.9 380.009 114.8 379.009L92.1 138.51C92.1 138.01 92.2 137.509 92.5 137.209C92.8 136.809 93.3 136.609 93.7 136.609L333 114.01C334 113.91 334.9 114.609 335 115.609L357.7 356.21C357.8 357.21 357.1 358.11 356.1 358.21L116.8 380.71H116.6ZM95.9 140.01L118.2 376.91L354 354.71L331.6 117.809L95.9 140.01Z" fill="#093F68"/>
<path d="M357.7 145.409H117.3V362.809H357.7V145.409Z" fill="white"/>
<path d="M357.7 364.609H117.3C116.3 364.609 115.5 363.81 115.5 362.81V145.41C115.5 144.41 116.3 143.609 117.3 143.609H357.7C358.7 143.609 359.5 144.41 359.5 145.41V362.81C359.5 363.81 358.7 364.609 357.7 364.609ZM119.1 361.009H355.8V147.21H119.1V361.009Z" fill="#093F68"/>
<path d="M328.2 176.41H280.1C279.1 176.51 278.2 175.71 278.1 174.71C278 173.71 278.8 172.81 279.8 172.71C279.9 172.71 280 172.71 280.1 172.71H328.2C329.2 172.61 330.1 173.41 330.2 174.41C330.3 175.41 329.5 176.31 328.5 176.41C328.4 176.41 328.3 176.41 328.2 176.41Z" fill="#70CC40"/>
<path d="M328.2 199.41H149.4C148.4 199.31 147.6 198.41 147.7 197.41C147.8 196.51 148.5 195.81 149.4 195.71H328.2C329.2 195.61 330.1 196.41 330.2 197.41C330.3 198.41 329.5 199.31 328.5 199.41C328.4 199.41 328.3 199.41 328.2 199.41Z" fill="#70CC40"/>
<path d="M328.2 222.509H149.4C148.4 222.509 147.6 221.709 147.6 220.709C147.6 219.709 148.4 218.909 149.4 218.909H328.2C329.2 218.909 330 219.709 330 220.709C330 221.709 329.2 222.509 328.2 222.509Z" fill="#70CC40"/>
<path d="M328.2 245.51H149.4C148.4 245.41 147.6 244.51 147.7 243.51C147.8 242.61 148.5 241.91 149.4 241.81H328.2C329.2 241.71 330.1 242.51 330.2 243.51C330.3 244.51 329.5 245.41 328.5 245.51C328.4 245.51 328.3 245.51 328.2 245.51Z" fill="#70CC40"/>
<path d="M81.8 384.509L125 237.409H257.7L277.2 219.409H417.6L367.2 384.509H81.8Z" fill="#68E1FD"/>
<path d="M367.2 386.31H81.8C80.8 386.31 80 385.509 80 384.509C80 384.309 80 384.109 80.1 384.009L123.3 236.91C123.5 236.11 124.2 235.609 125.1 235.609H257.1L276.1 218.109C276.4 217.809 276.9 217.609 277.3 217.609H417.7C418.3 217.609 418.8 217.91 419.2 218.31C419.5 218.81 419.7 219.41 419.5 219.91L369.1 385.009C368.7 385.709 368 386.31 367.2 386.31ZM84.3 382.609H365.9L415.2 221.21H277.9L258.9 238.71C258.6 239.01 258.1 239.21 257.7 239.21H126.4L84.3 382.609Z" fill="#093F68"/>
<path d="M354.8 364.009H296.2C295.2 363.909 294.4 363.009 294.5 362.009C294.6 361.109 295.3 360.41 296.2 360.31H354.8C355.8 360.21 356.7 361.009 356.8 362.009C356.9 363.009 356.1 363.909 355.1 364.009C355 364.009 354.9 364.009 354.8 364.009Z" fill="#F56132"/>
<path d="M170.6 176.41H149.4C148.4 176.31 147.6 175.41 147.7 174.41C147.8 173.51 148.5 172.81 149.4 172.71H170.6C171.6 172.61 172.5 173.41 172.6 174.41C172.7 175.41 171.9 176.31 170.9 176.41C170.8 176.41 170.7 176.41 170.6 176.41Z" fill="#70CC40"/>
</g>
<path d="M152.514 442.545C152.378 441.394 151.825 440.5 150.855 439.864C149.885 439.227 148.696 438.909 147.287 438.909C146.257 438.909 145.355 439.076 144.582 439.409C143.817 439.742 143.219 440.201 142.787 440.784C142.363 441.367 142.151 442.03 142.151 442.773C142.151 443.394 142.298 443.928 142.594 444.375C142.897 444.814 143.283 445.182 143.753 445.477C144.223 445.765 144.715 446.004 145.23 446.193C145.745 446.375 146.219 446.523 146.651 446.636L149.014 447.273C149.62 447.432 150.295 447.652 151.037 447.932C151.787 448.212 152.503 448.595 153.185 449.08C153.874 449.557 154.442 450.17 154.889 450.92C155.336 451.67 155.56 452.591 155.56 453.682C155.56 454.939 155.23 456.076 154.571 457.091C153.92 458.106 152.965 458.913 151.707 459.511C150.457 460.11 148.938 460.409 147.151 460.409C145.484 460.409 144.041 460.14 142.821 459.602C141.609 459.064 140.654 458.314 139.957 457.352C139.268 456.39 138.878 455.273 138.787 454H141.696C141.772 454.879 142.067 455.606 142.582 456.182C143.105 456.75 143.764 457.174 144.56 457.455C145.363 457.727 146.226 457.864 147.151 457.864C148.226 457.864 149.192 457.689 150.048 457.341C150.904 456.985 151.582 456.492 152.082 455.864C152.582 455.227 152.832 454.485 152.832 453.636C152.832 452.864 152.616 452.235 152.185 451.75C151.753 451.265 151.185 450.871 150.48 450.568C149.776 450.265 149.014 450 148.196 449.773L145.332 448.955C143.514 448.432 142.075 447.686 141.014 446.716C139.954 445.746 139.423 444.477 139.423 442.909C139.423 441.606 139.776 440.47 140.48 439.5C141.192 438.523 142.147 437.765 143.344 437.227C144.548 436.682 145.893 436.409 147.378 436.409C148.878 436.409 150.211 436.678 151.378 437.216C152.545 437.746 153.469 438.473 154.151 439.398C154.84 440.322 155.204 441.371 155.241 442.545H152.514ZM167.148 460.364C165.466 460.364 164.015 459.992 162.795 459.25C161.583 458.5 160.648 457.455 159.989 456.114C159.337 454.765 159.011 453.197 159.011 451.409C159.011 449.621 159.337 448.045 159.989 446.682C160.648 445.311 161.564 444.242 162.739 443.477C163.92 442.705 165.299 442.318 166.875 442.318C167.784 442.318 168.682 442.47 169.568 442.773C170.455 443.076 171.261 443.568 171.989 444.25C172.716 444.924 173.295 445.818 173.727 446.932C174.159 448.045 174.375 449.417 174.375 451.045V452.182H160.92V449.864H171.648C171.648 448.879 171.451 448 171.057 447.227C170.67 446.455 170.117 445.845 169.398 445.398C168.686 444.951 167.845 444.727 166.875 444.727C165.807 444.727 164.883 444.992 164.102 445.523C163.33 446.045 162.735 446.727 162.318 447.568C161.902 448.409 161.693 449.311 161.693 450.273V451.818C161.693 453.136 161.92 454.254 162.375 455.17C162.837 456.08 163.477 456.773 164.295 457.25C165.114 457.72 166.064 457.955 167.148 457.955C167.852 457.955 168.489 457.856 169.057 457.659C169.633 457.455 170.129 457.152 170.545 456.75C170.962 456.341 171.284 455.833 171.511 455.227L174.102 455.955C173.83 456.833 173.371 457.606 172.727 458.273C172.083 458.932 171.288 459.447 170.341 459.818C169.394 460.182 168.33 460.364 167.148 460.364ZM181.136 436.727V460H178.455V436.727H181.136ZM193.366 460.364C191.685 460.364 190.234 459.992 189.014 459.25C187.802 458.5 186.866 457.455 186.207 456.114C185.556 454.765 185.23 453.197 185.23 451.409C185.23 449.621 185.556 448.045 186.207 446.682C186.866 445.311 187.783 444.242 188.957 443.477C190.139 442.705 191.518 442.318 193.094 442.318C194.003 442.318 194.901 442.47 195.787 442.773C196.673 443.076 197.48 443.568 198.207 444.25C198.935 444.924 199.514 445.818 199.946 446.932C200.378 448.045 200.594 449.417 200.594 451.045V452.182H187.139V449.864H197.866C197.866 448.879 197.67 448 197.276 447.227C196.889 446.455 196.336 445.845 195.616 445.398C194.904 444.951 194.063 444.727 193.094 444.727C192.026 444.727 191.101 444.992 190.321 445.523C189.548 446.045 188.954 446.727 188.537 447.568C188.12 448.409 187.912 449.311 187.912 450.273V451.818C187.912 453.136 188.139 454.254 188.594 455.17C189.056 456.08 189.696 456.773 190.514 457.25C191.332 457.72 192.283 457.955 193.366 457.955C194.071 457.955 194.707 457.856 195.276 457.659C195.851 457.455 196.348 457.152 196.764 456.75C197.181 456.341 197.503 455.833 197.73 455.227L200.321 455.955C200.048 456.833 199.59 457.606 198.946 458.273C198.302 458.932 197.507 459.447 196.56 459.818C195.613 460.182 194.548 460.364 193.366 460.364ZM211.764 460.364C210.128 460.364 208.719 459.977 207.537 459.205C206.355 458.432 205.446 457.367 204.81 456.011C204.173 454.655 203.855 453.106 203.855 451.364C203.855 449.591 204.181 448.027 204.832 446.67C205.491 445.307 206.408 444.242 207.582 443.477C208.764 442.705 210.143 442.318 211.719 442.318C212.946 442.318 214.052 442.545 215.037 443C216.022 443.455 216.829 444.091 217.457 444.909C218.086 445.727 218.476 446.682 218.628 447.773H215.946C215.741 446.977 215.287 446.273 214.582 445.659C213.885 445.038 212.946 444.727 211.764 444.727C210.719 444.727 209.802 445 209.014 445.545C208.234 446.083 207.624 446.845 207.185 447.83C206.753 448.807 206.537 449.955 206.537 451.273C206.537 452.621 206.749 453.795 207.173 454.795C207.605 455.795 208.211 456.572 208.991 457.125C209.779 457.678 210.704 457.955 211.764 457.955C212.461 457.955 213.094 457.833 213.662 457.591C214.23 457.348 214.711 457 215.105 456.545C215.499 456.091 215.779 455.545 215.946 454.909H218.628C218.476 455.939 218.101 456.867 217.503 457.693C216.912 458.511 216.128 459.163 215.151 459.648C214.181 460.125 213.052 460.364 211.764 460.364ZM230.139 442.545V444.818H221.094V442.545H230.139ZM223.73 438.364H226.412V455C226.412 455.758 226.522 456.326 226.741 456.705C226.969 457.076 227.257 457.326 227.605 457.455C227.961 457.576 228.336 457.636 228.73 457.636C229.026 457.636 229.268 457.621 229.457 457.591C229.647 457.553 229.798 457.523 229.912 457.5L230.457 459.909C230.276 459.977 230.022 460.045 229.696 460.114C229.37 460.189 228.957 460.227 228.457 460.227C227.7 460.227 226.957 460.064 226.23 459.739C225.51 459.413 224.912 458.917 224.435 458.25C223.965 457.583 223.73 456.742 223.73 455.727V438.364ZM243.537 460V436.727H257.491V439.227H246.355V447.091H256.446V449.591H246.355V460H243.537ZM261.955 460V442.545H264.636V460H261.955ZM263.318 439.636C262.795 439.636 262.345 439.458 261.966 439.102C261.595 438.746 261.409 438.318 261.409 437.818C261.409 437.318 261.595 436.89 261.966 436.534C262.345 436.178 262.795 436 263.318 436C263.841 436 264.288 436.178 264.659 436.534C265.038 436.89 265.227 437.318 265.227 437.818C265.227 438.318 265.038 438.746 264.659 439.102C264.288 439.458 263.841 439.636 263.318 439.636ZM272.23 436.727V460H269.548V436.727H272.23ZM284.46 460.364C282.778 460.364 281.328 459.992 280.108 459.25C278.896 458.5 277.96 457.455 277.301 456.114C276.65 454.765 276.324 453.197 276.324 451.409C276.324 449.621 276.65 448.045 277.301 446.682C277.96 445.311 278.877 444.242 280.051 443.477C281.233 442.705 282.612 442.318 284.188 442.318C285.097 442.318 285.994 442.47 286.881 442.773C287.767 443.076 288.574 443.568 289.301 444.25C290.028 444.924 290.608 445.818 291.04 446.932C291.472 448.045 291.688 449.417 291.688 451.045V452.182H278.233V449.864H288.96C288.96 448.879 288.763 448 288.369 447.227C287.983 446.455 287.43 445.845 286.71 445.398C285.998 444.951 285.157 444.727 284.188 444.727C283.119 444.727 282.195 444.992 281.415 445.523C280.642 446.045 280.047 446.727 279.631 447.568C279.214 448.409 279.006 449.311 279.006 450.273V451.818C279.006 453.136 279.233 454.254 279.688 455.17C280.15 456.08 280.79 456.773 281.608 457.25C282.426 457.72 283.377 457.955 284.46 457.955C285.165 457.955 285.801 457.856 286.369 457.659C286.945 457.455 287.441 457.152 287.858 456.75C288.275 456.341 288.597 455.833 288.824 455.227L291.415 455.955C291.142 456.833 290.684 457.606 290.04 458.273C289.396 458.932 288.6 459.447 287.653 459.818C286.706 460.182 285.642 460.364 284.46 460.364ZM308.131 446.455L305.722 447.136C305.57 446.735 305.347 446.345 305.051 445.966C304.763 445.58 304.369 445.261 303.869 445.011C303.369 444.761 302.729 444.636 301.949 444.636C300.881 444.636 299.991 444.883 299.278 445.375C298.574 445.86 298.222 446.477 298.222 447.227C298.222 447.894 298.464 448.42 298.949 448.807C299.434 449.193 300.191 449.515 301.222 449.773L303.812 450.409C305.373 450.788 306.536 451.367 307.301 452.148C308.066 452.92 308.449 453.917 308.449 455.136C308.449 456.136 308.161 457.03 307.585 457.818C307.017 458.606 306.222 459.227 305.199 459.682C304.176 460.136 302.987 460.364 301.631 460.364C299.85 460.364 298.377 459.977 297.21 459.205C296.044 458.432 295.305 457.303 294.994 455.818L297.54 455.182C297.782 456.121 298.241 456.826 298.915 457.295C299.597 457.765 300.487 458 301.585 458C302.835 458 303.828 457.735 304.562 457.205C305.305 456.667 305.676 456.023 305.676 455.273C305.676 454.667 305.464 454.159 305.04 453.75C304.616 453.333 303.964 453.023 303.085 452.818L300.176 452.136C298.578 451.758 297.403 451.17 296.653 450.375C295.911 449.572 295.54 448.568 295.54 447.364C295.54 446.379 295.816 445.508 296.369 444.75C296.93 443.992 297.691 443.398 298.653 442.966C299.623 442.534 300.722 442.318 301.949 442.318C303.676 442.318 305.032 442.697 306.017 443.455C307.009 444.212 307.714 445.212 308.131 446.455Z" fill="black"/>
</svg>
